<svg xmlns="http://www.w3.org/2000/svg" id="a" data-name="Layer 2" width="3.756in" height=".72in" viewBox="0 0 270.43 51.835"><g><rect y="41.191" width="66.767" height="10.644" fill="#fff" stroke-width="0"></rect><path d="M47.414,0c-5.51,0-10.497,2.338-14.031,6.065C29.85,2.338,24.863,0,19.353,0,8.709,0,0,8.709,0,19.353v19.765h10.673v-19.765c0-4.786,3.894-8.68,8.68-8.68s8.68,3.894,8.68,8.68v19.765h10.702v-19.765c0-4.786,3.894-8.68,8.68-8.68s8.68,3.894,8.68,8.68v19.765h10.673v-19.765c0-10.644-8.709-19.353-19.353-19.353Z" fill="#fff" stroke-width="0"></path></g><g><polygon points="86.47 27.71 82.156 20.148 75.995 20.148 75.995 39.122 81.973 39.122 81.973 29.869 84.989 35.378 87.874 35.378 90.811 29.869 90.811 39.122 97.154 39.122 97.154 20.148 90.474 20.148 86.47 27.71" fill="#fff" stroke-width="0"></polygon><rect x="100.269" y="20.148" width="6.343" height="18.975" fill="#fff" stroke-width="0"></rect><path d="M118.256,27.217c-2.495-.729-2.938-1.092-2.938-1.69,0-.545.443-1.065,1.638-1.065,1.404,0,2.6.493,3.899,1.43l2.495-4.134c-1.274-1.013-3.691-1.924-6.16-1.924-4.601,0-7.825,2.21-7.825,6.318,0,3.119,1.742,4.601,5.199,5.666,2.314.702,3.041,1.04,3.041,1.95,0,.65-.65,1.038-1.559,1.038-1.638,0-3.171-.648-4.939-2.052l-2.521,4.029c1.768,1.534,4.445,2.65,7.538,2.65,4.575,0,7.435-2.547,7.435-6.343,0-3.561-1.872-4.886-5.302-5.874Z" fill="#fff" stroke-width="0"></path><path d="M134.084,27.217c-2.495-.729-2.938-1.092-2.938-1.69,0-.545.443-1.065,1.638-1.065,1.404,0,2.6.493,3.899,1.43l2.495-4.134c-1.274-1.013-3.691-1.924-6.16-1.924-4.601,0-7.825,2.21-7.825,6.318,0,3.119,1.742,4.601,5.199,5.666,2.314.702,3.041,1.04,3.041,1.95,0,.65-.65,1.038-1.559,1.038-1.638,0-3.171-.648-4.939-2.052l-2.521,4.029c1.768,1.534,4.445,2.65,7.538,2.65,4.575,0,7.435-2.547,7.435-6.343,0-3.561-1.872-4.886-5.302-5.874Z" fill="#fff" stroke-width="0"></path><rect x="141.828" y="20.148" width="6.343" height="18.975" fill="#fff" stroke-width="0"></rect><path d="M160.75,19.834c-5.953,0-10.242,4.159-10.242,9.827s4.237,9.773,10.19,9.773,10.242-4.159,10.242-9.825-4.237-9.775-10.19-9.775ZM160.75,34.391c-2.313,0-4.029-2.054-4.029-4.782s1.664-4.731,3.977-4.731,4.029,2.054,4.029,4.782-1.664,4.731-3.977,4.731Z" fill="#fff" stroke-width="0"></path><polygon points="185.234 28.282 178.656 20.148 173.224 20.148 173.224 39.122 179.203 39.122 179.203 30.362 186.299 39.122 191.211 39.122 191.211 20.148 185.234 20.148 185.234 28.282" fill="#fff" stroke-width="0"></polygon><path d="M213.2,29.297c1.637-.625,2.859-2.159,2.859-4.056,0-3.197-2.625-5.094-6.603-5.094h-8.291v18.975h8.915c4.264,0,6.968-1.975,6.968-5.381,0-2.184-1.664-4.132-3.847-4.444ZM207.09,24.383h.962c1.664,0,2.599.417,2.599,1.69,0,1.247-.883,1.845-2.599,1.845h-.962v-3.536ZM209.014,34.885h-1.924v-3.536h1.924c1.56,0,2.417.547,2.417,1.69,0,1.17-.65,1.845-2.417,1.845Z" fill="#fff" stroke-width="0"></path><path d="M228.559,19.834c-5.953,0-10.242,4.159-10.242,9.827s4.237,9.773,10.19,9.773,10.242-4.159,10.242-9.825-4.237-9.775-10.19-9.775ZM228.559,34.391c-2.314,0-4.029-2.054-4.029-4.782s1.664-4.731,3.977-4.731,4.029,2.054,4.029,4.782-1.664,4.731-3.977,4.731Z" fill="#fff" stroke-width="0"></path><path d="M249.3,27.217c-2.495-.729-2.937-1.092-2.937-1.69,0-.545.442-1.065,1.637-1.065,1.404,0,2.599.493,3.899,1.43l2.495-4.134c-1.273-1.013-3.691-1.924-6.161-1.924-4.601,0-7.823,2.21-7.823,6.318,0,3.119,1.74,4.601,5.197,5.666,2.314.702,3.042,1.04,3.042,1.95,0,.65-.65,1.038-1.56,1.038-1.637,0-3.17-.648-4.939-2.052l-2.52,4.029c1.767,1.534,4.444,2.65,7.538,2.65,4.576,0,7.435-2.547,7.435-6.343,0-3.561-1.872-4.886-5.302-5.874Z" fill="#fff" stroke-width="0"></path><path d="M265.128,27.217c-2.495-.729-2.937-1.092-2.937-1.69,0-.545.442-1.065,1.637-1.065,1.404,0,2.599.493,3.899,1.43l2.495-4.134c-1.274-1.013-3.691-1.924-6.161-1.924-4.601,0-7.823,2.21-7.823,6.318,0,3.119,1.74,4.601,5.197,5.666,2.314.702,3.042,1.04,3.042,1.95,0,.65-.65,1.038-1.56,1.038-1.637,0-3.17-.648-4.939-2.052l-2.52,4.029c1.767,1.534,4.444,2.65,7.538,2.65,4.576,0,7.435-2.547,7.435-6.343,0-3.561-1.872-4.886-5.302-5.874Z" fill="#fff" stroke-width="0"></path></g></svg>