<svg xmlns="http://www.w3.org/2000/svg" xmlns:xlink="http://www.w3.org/1999/xlink" id="a" data-name="Layer 2" width="1.477in" height="1.147in" viewBox="0 0 106.348 82.565"><defs><linearGradient id="b" x1="0" y1="74.088" x2="106.348" y2="74.088" gradientUnits="userSpaceOnUse"><stop offset="0" stop-color="#fff"></stop><stop offset="0" stop-color="#e23520"></stop><stop offset="1" stop-color="#80007b"></stop></linearGradient><linearGradient id="c" x1="0" y1="31.154" y2="31.154" xlink:href="#b"></linearGradient></defs><rect y="65.611" width="106.348" height="16.954" fill="url(#b)" stroke-width="0"></rect><path d="M75.523,0c-8.777,0-16.721,3.723-22.349,9.661C47.547,3.723,39.602,0,30.826,0,13.872,0,0,13.872,0,30.826v31.482h17v-31.482c0-7.623,6.202-13.826,13.826-13.826s13.826,6.202,13.826,13.826v31.482h17.046v-31.482c0-7.623,6.202-13.826,13.826-13.826s13.826,6.202,13.826,13.826v31.482h17v-31.482c0-16.954-13.871-30.826-30.826-30.826Z" fill="url(#c)" stroke-width="0"></path></svg>